<svg width="39" height="28" viewBox="0 0 39 28" fill="none" xmlns="http://www.w3.org/2000/svg">
<path fill-rule="evenodd" clip-rule="evenodd" d="M37 3.5L2 3.5C1.17157 3.5 0.5 2.82843 0.5 2C0.5 1.17158 1.17157 0.500003 2 0.500003L37 0.5C37.8284 0.5 38.5 1.17157 38.5 2C38.5 2.82843 37.8284 3.5 37 3.5ZM37 15.5L2 15.5C1.17157 15.5 0.5 14.8284 0.5 14C0.5 13.1716 1.17157 12.5 2 12.5L37 12.5C37.8284 12.5 38.5 13.1716 38.5 14C38.5 14.8284 37.8284 15.5 37 15.5ZM37 27.5L2 27.5C1.17157 27.5 0.5 26.8284 0.5 26C0.5 25.1716 1.17157 24.5 2 24.5L37 24.5C37.8284 24.5 38.5 25.1716 38.5 26C38.5 26.8284 37.8284 27.5 37 27.5Z" fill="white"/>
</svg>
