<svg width="506" height="505" viewBox="0 0 506 505" fill="none" xmlns="http://www.w3.org/2000/svg">
<path d="M500.681 246.723C500.934 250.407 501.103 254.114 501.188 257.841L500.688 257.853C500.73 259.705 500.751 261.563 500.751 263.425C500.751 265.288 500.73 267.146 500.688 268.998L501.188 269.009C501.103 272.737 500.934 276.444 500.681 280.128L500.183 280.094C499.929 283.805 499.59 287.492 499.17 291.154L499.667 291.211C499.242 294.913 498.733 298.588 498.142 302.236L497.649 302.156C497.055 305.825 496.378 309.466 495.62 313.076L496.109 313.179C495.344 316.822 494.497 320.435 493.57 324.016L493.086 323.891C492.154 327.487 491.142 331.05 490.051 334.578L490.528 334.726C489.429 338.281 488.249 341.801 486.991 345.284L486.521 345.114C485.26 348.605 483.92 352.059 482.505 355.473L482.967 355.665C481.542 359.1 480.041 362.495 478.464 365.847L478.012 365.634C476.433 368.991 474.779 372.306 473.052 375.576L473.494 375.809C471.758 379.095 469.949 382.337 468.068 385.53L467.637 385.277C465.756 388.471 463.802 391.619 461.78 394.717L462.198 394.99C460.168 398.1 458.067 401.161 455.899 404.169L455.493 403.877C453.326 406.883 451.092 409.837 448.791 412.737L449.183 413.048C446.876 415.957 444.503 418.811 442.067 421.609L441.69 421.281C439.257 424.074 436.76 426.811 434.203 429.489L434.564 429.834C432.001 432.518 429.376 435.143 426.692 437.706L426.347 437.344C423.669 439.902 420.932 442.398 418.139 444.831L418.467 445.208C415.67 447.645 412.815 450.018 409.906 452.325L409.596 451.933C406.696 454.233 403.741 456.468 400.735 458.635L401.027 459.04C398.019 461.209 394.959 463.309 391.849 465.34L391.575 464.921C388.477 466.944 385.33 468.897 382.135 470.779L382.389 471.21C379.195 473.091 375.954 474.9 372.668 476.636L372.434 476.193C369.164 477.921 365.85 479.575 362.493 481.153L362.706 481.606C359.353 483.182 355.958 484.684 352.523 486.108L352.332 485.646C348.917 487.062 345.464 488.402 341.972 489.663L342.142 490.133C338.659 491.391 335.139 492.57 331.584 493.67L331.436 493.192C327.908 494.284 324.345 495.296 320.749 496.227L320.874 496.711C317.294 497.639 313.681 498.486 310.037 499.251L309.935 498.761C306.324 499.519 302.683 500.196 299.015 500.79L299.095 501.284C295.446 501.875 291.771 502.383 288.07 502.808L288.013 502.312C284.35 502.732 280.663 503.07 276.952 503.324L276.986 503.823C273.302 504.075 269.595 504.245 265.868 504.33L265.856 503.83C264.004 503.872 262.146 503.893 260.284 503.893C258.421 503.893 256.564 503.872 254.711 503.83L254.7 504.33C250.972 504.245 247.265 504.075 243.581 503.823L243.615 503.324C239.905 503.07 236.217 502.732 232.555 502.312L232.498 502.808C228.797 502.383 225.121 501.875 221.473 501.284L221.553 500.79C217.884 500.196 214.244 499.519 210.633 498.761L210.53 499.251C206.887 498.486 203.274 497.639 199.693 496.711L199.818 496.227C196.223 495.296 192.659 494.284 189.131 493.192L188.983 493.67C185.428 492.57 181.908 491.391 178.425 490.133L178.595 489.663C175.104 488.402 171.65 487.062 168.236 485.646L168.044 486.108C164.609 484.684 161.214 483.182 157.862 481.606L158.075 481.153C154.718 479.575 151.403 477.921 148.133 476.194L147.9 476.636C144.614 474.9 141.373 473.091 138.179 471.21L138.432 470.779C135.238 468.897 132.09 466.944 128.992 464.921L128.719 465.34C125.609 463.309 122.548 461.209 119.54 459.04L119.832 458.635C116.826 456.468 113.872 454.233 110.972 451.933L110.661 452.325C107.752 450.018 104.898 447.645 102.1 445.208L102.428 444.831C99.635 442.398 96.8982 439.902 94.2204 437.344L93.8751 437.706C91.1912 435.143 88.5665 432.518 86.0031 429.834L86.3647 429.489C83.8071 426.811 81.3108 424.074 78.8779 421.281L78.5009 421.609C76.0644 418.811 73.6914 415.957 71.3843 413.048L71.776 412.737C69.4759 409.837 67.2413 406.883 65.0744 403.877L64.6688 404.169C62.5005 401.161 60.3999 398.1 58.3692 394.99L58.7878 394.717C56.7651 391.619 54.8119 388.471 52.9305 385.277L52.4996 385.53C50.6187 382.337 48.8092 379.095 47.0736 375.809L47.5157 375.576C45.7885 372.306 44.1345 368.991 42.5559 365.634L42.1035 365.847C40.5269 362.495 39.0253 359.1 37.6009 355.665L38.0628 355.473C36.647 352.059 35.3076 348.605 34.0467 345.114L33.5764 345.284C32.3187 341.801 31.1389 338.281 30.0392 334.726L30.5169 334.578C29.4254 331.05 28.4131 327.487 27.4818 323.891L26.9978 324.016C26.0704 320.435 25.2233 316.822 24.4585 313.179L24.9478 313.076C24.1898 309.466 23.5129 305.825 22.9189 302.156L22.4253 302.236C21.8346 298.588 21.3258 294.913 20.9009 291.211L21.3976 291.154C20.9771 287.492 20.6389 283.805 20.3848 280.094L19.886 280.128C19.6338 276.444 19.4644 272.737 19.3796 269.009L19.8795 268.998C19.8373 267.146 19.8162 265.288 19.8162 263.425C19.8162 261.563 19.8373 259.705 19.8795 257.853L19.3796 257.842C19.4644 254.114 19.6338 250.407 19.886 246.723L20.3848 246.757C20.6389 243.046 20.9771 239.359 21.3976 235.696L20.9008 235.639C21.3258 231.938 21.8346 228.263 22.4253 224.615L22.9189 224.694C23.5129 221.026 24.1898 217.385 24.9478 213.774L24.4585 213.672C25.2233 210.028 26.0704 206.415 26.9978 202.835L27.4818 202.96C28.4131 199.364 29.4254 195.801 30.5169 192.273L30.0392 192.125C31.1389 188.57 32.3187 185.05 33.5764 181.567L34.0467 181.737C35.3076 178.246 36.647 174.792 38.0628 171.378L37.6009 171.186C39.0253 167.751 40.5269 164.356 42.1035 161.004L42.5559 161.216C44.1345 157.859 45.7885 154.545 47.5157 151.275L47.0736 151.041C48.8092 147.755 50.6187 144.514 52.4996 141.32L52.9305 141.574C54.8119 138.379 56.7651 135.232 58.7878 132.134L58.3692 131.861C60.3999 128.75 62.5005 125.69 64.6688 122.682L65.0744 122.974C67.2413 119.968 69.4759 117.013 71.776 114.113L71.3843 113.803C73.6914 110.894 76.0644 108.039 78.5009 105.242L78.8779 105.57C81.3108 102.777 83.8072 100.04 86.3647 97.3621L86.0031 97.0168C88.5665 94.333 91.1912 91.7082 93.8751 89.1449L94.2204 89.5064C96.8982 86.9489 99.635 84.4525 102.428 82.0196L102.1 81.6426C104.898 79.2061 107.752 76.8332 110.661 74.526L110.972 74.9177C113.872 72.6176 116.826 70.383 119.832 68.2161L119.54 67.8105C122.548 65.6422 125.609 63.5416 128.719 61.5109L128.992 61.9296C132.09 59.9069 135.238 57.9537 138.432 56.0722L138.179 55.6414C141.373 53.7604 144.614 51.951 147.9 50.2153L148.133 50.6574C151.403 48.9302 154.718 47.2763 158.075 45.6977L157.862 45.2452C161.214 43.6686 164.609 42.167 168.044 40.7426L168.236 41.2045C171.65 39.7887 175.104 38.4493 178.595 37.1884L178.425 36.7181C181.908 35.4604 185.428 34.2806 188.983 33.1809L189.131 33.6586C192.659 32.5672 196.223 31.5548 199.818 30.6235L199.693 30.1395C203.274 29.2121 206.887 28.365 210.53 27.6002L210.633 28.0896C214.244 27.3316 217.884 26.6546 221.553 26.0606L221.473 25.567C225.121 24.9763 228.797 24.4675 232.498 24.0426L232.555 24.5393C236.217 24.1188 239.905 23.7806 243.615 23.5266L243.581 23.0277C247.265 22.7755 250.972 22.6061 254.7 22.5213L254.711 23.0212C256.564 22.9791 258.421 22.9579 260.284 22.9579C262.146 22.9579 264.004 22.9791 265.856 23.0212L265.868 22.5213C269.595 22.6061 273.302 22.7755 276.986 23.0277L276.952 23.5266C280.663 23.7806 284.35 24.1188 288.013 24.5393L288.07 24.0426C291.771 24.4675 295.446 24.9763 299.095 25.567L299.015 26.0606C302.683 26.6546 306.324 27.3316 309.935 28.0896L310.037 27.6002C313.681 28.365 317.294 29.2121 320.874 30.1395L320.749 30.6235C324.345 31.5548 327.908 32.5672 331.436 33.6586L331.584 33.1809C335.139 34.2806 338.659 35.4604 342.142 36.7181L341.972 37.1884C345.464 38.4493 348.917 39.7887 352.332 41.2045L352.523 40.7426C355.958 42.167 359.353 43.6686 362.706 45.2452L362.493 45.6977C365.85 47.2763 369.164 48.9302 372.434 50.6574L372.668 50.2153C375.954 51.951 379.195 53.7604 382.389 55.6414L382.135 56.0722C385.33 57.9537 388.477 59.9068 391.575 61.9296L391.849 61.5109C394.959 63.5416 398.019 65.6422 401.027 67.8105L400.735 68.2161C403.741 70.383 406.696 72.6176 409.596 74.9177L409.906 74.526C412.815 76.8332 415.67 79.2061 418.467 81.6426L418.139 82.0196C420.932 84.4525 423.669 86.9489 426.347 89.5064L426.692 89.1449C429.376 91.7082 432.001 94.333 434.564 97.0168L434.203 97.3621C436.76 100.04 439.257 102.777 441.69 105.57L442.067 105.242C444.503 108.039 446.876 110.894 449.183 113.803L448.791 114.113C451.092 117.013 453.326 119.968 455.493 122.974L455.899 122.682C458.067 125.69 460.168 128.75 462.198 131.861L461.78 132.134C463.802 135.232 465.755 138.379 467.637 141.574L468.068 141.32C469.949 144.514 471.758 147.755 473.494 151.041L473.052 151.275C474.779 154.545 476.433 157.859 478.012 161.216L478.464 161.004C480.041 164.356 481.542 167.751 482.967 171.186L482.505 171.378C483.92 174.792 485.26 178.246 486.521 181.737L486.991 181.567C488.249 185.05 489.429 188.57 490.528 192.125L490.051 192.273C491.142 195.801 492.154 199.364 493.086 202.96L493.57 202.835C494.497 206.415 495.344 210.028 496.109 213.672L495.62 213.774C496.378 217.385 497.055 221.026 497.649 224.694L498.142 224.615C498.733 228.263 499.242 231.938 499.667 235.639L499.17 235.696C499.59 239.359 499.929 243.046 500.183 246.757L500.681 246.723Z" stroke="url(#paint0_linear)" stroke-dasharray="11 11"/>
<circle cx="260.284" cy="263.426" r="178.556" stroke="url(#paint1_linear)"/>
<circle cx="260.587" cy="263.122" r="118.163" stroke="url(#paint2_linear)" stroke-dasharray="11 11"/>
<circle cx="417.489" cy="84.369" r="41.881" fill="white"/>
<circle cx="147.994" cy="50.9856" r="33.3834" fill="white"/>
<circle cx="100.347" cy="442.178" r="41.5775" fill="white"/>
<circle cx="234.184" cy="148.101" r="21.851" fill="white"/>
<circle cx="23.2614" cy="244.913" r="22.7614" fill="white"/>
<circle cx="260.284" cy="263.425" r="47.9507" fill="white"/>
<circle cx="425.38" cy="331.406" r="33.9904" fill="white"/>
<g clip-path="url(#clip0)">
<path d="M132.82 65.5529V35.2043H154.671L163.168 43.7019V65.5529H132.82Z" fill="url(#paint3_linear)"/>
<path d="M132.82 65.5529V57.0553L154.671 35.2043L163.168 43.7019L141.317 65.5529H132.82Z" fill="#CD24E8"/>
<path d="M154.671 35.2043H154.974L163.168 43.3985V43.7019H154.671V35.2043Z" fill="#A94EF1"/>
<path d="M143.39 52.1149V53.2842H139.888V55.6223H142.843V56.7967H139.888V60.0143H138.408V52.1149H143.39ZM146.197 60.014H144.722V52.1149H146.197V60.014ZM149.442 58.8013H152.605V60.014H147.973V52.1149H149.442V58.8013H149.442ZM158.603 52.1149V53.2842H155.102V55.4748H157.86V56.6055H155.102V58.8398H158.603V60.0143H153.621V52.1149H158.603Z" fill="white"/>
</g>
<g clip-path="url(#clip1)">
<path fill-rule="evenodd" clip-rule="evenodd" d="M287.597 284.063H267.567V291.346H270.299C270.54 291.346 270.772 291.442 270.942 291.613C271.113 291.784 271.209 292.015 271.209 292.257C271.209 292.498 271.113 292.73 270.942 292.9C270.772 293.071 270.54 293.167 270.299 293.167H250.269C250.027 293.167 249.796 293.071 249.625 292.9C249.454 292.73 249.358 292.498 249.358 292.257C249.358 292.015 249.454 291.784 249.625 291.613C249.796 291.442 250.027 291.346 250.269 291.346H253V284.063H232.97C232.165 284.063 231.393 283.743 230.824 283.174C230.255 282.605 229.935 281.833 229.935 281.028V275.565H290.632V281.028C290.632 281.833 290.312 282.605 289.743 283.174C289.174 283.743 288.402 284.063 287.597 284.063Z" fill="#BDC3C7"/>
<path fill-rule="evenodd" clip-rule="evenodd" d="M253 284.062H267.567V285.276H253V284.062Z" fill="#95A5A5"/>
<path fill-rule="evenodd" clip-rule="evenodd" d="M232.97 236.112H287.597C288.402 236.112 289.174 236.432 289.743 237.001C290.312 237.57 290.632 238.342 290.632 239.147V275.565H229.935V239.147C229.935 238.342 230.255 237.57 230.824 237.001C231.393 236.432 232.165 236.112 232.97 236.112V236.112Z" fill="#2C3E50"/>
<path fill-rule="evenodd" clip-rule="evenodd" d="M232.97 239.147H287.597V272.53H232.97V239.147Z" fill="#35495E"/>
<path d="M260.284 281.028C260.954 281.028 261.498 280.484 261.498 279.814C261.498 279.143 260.954 278.6 260.284 278.6C259.613 278.6 259.07 279.143 259.07 279.814C259.07 280.484 259.613 281.028 260.284 281.028Z" fill="#35495E"/>
</g>
<g clip-path="url(#clip2)">
<path d="M100.347 469.189C115.264 469.189 127.357 457.096 127.357 442.178C127.357 427.261 115.264 415.168 100.347 415.168C85.4293 415.168 73.3364 427.261 73.3364 442.178C73.3364 457.096 85.4293 469.189 100.347 469.189Z" fill="url(#paint4_linear)"/>
<path fill-rule="evenodd" clip-rule="evenodd" d="M77.4522 426.869L100.346 442.177L85.0529 419.269L77.4522 426.869ZM123.248 426.879L115.65 419.276L100.346 442.177L73.3391 436.796L73.3364 447.546L100.346 442.177L77.4452 457.475L85.0432 465.078L100.347 442.177L94.9673 469.193L105.715 469.195L100.347 442.177L115.64 465.085L123.241 457.484L100.347 442.177L123.248 426.879ZM127.357 436.808L100.347 442.177L127.355 447.558L127.357 436.808ZM94.9786 415.159L100.347 442.176L105.726 415.161L94.9786 415.159Z" fill="white" fill-opacity="0.4"/>
<path fill-rule="evenodd" clip-rule="evenodd" d="M105.749 465.407H94.9446C94.9446 461.315 93.0609 455.919 90.6283 453.888C88.9317 452.46 87.5684 450.678 86.6342 448.666C85.7 446.655 85.2176 444.464 85.2209 442.246C85.2209 433.855 91.9929 427.053 100.347 427.053C108.7 427.053 115.472 433.855 115.472 442.246C115.472 446.928 113.227 450.959 110.049 453.901C107.472 456.478 105.749 461.337 105.749 465.407Z" fill="#CD24E8" stroke="white" stroke-width="4" stroke-miterlimit="10"/>
<path fill-rule="evenodd" clip-rule="evenodd" d="M101.967 466.488C101.824 466.488 101.687 466.431 101.585 466.329C101.484 466.228 101.427 466.091 101.427 465.947V448.121H99.2662V465.947C99.2662 466.091 99.2093 466.228 99.108 466.329C99.0067 466.431 98.8693 466.488 98.726 466.488H97.6456C97.5024 466.488 97.365 466.431 97.2637 466.329C97.1623 466.228 97.1054 466.091 97.1054 465.947V448.121H95.7549C93.8188 448.121 92.2436 446.545 92.2436 444.609C92.2436 442.673 93.8188 441.098 95.7549 441.098C96.6109 441.094 97.4386 441.404 98.0807 441.97C98.7227 442.536 99.1343 443.319 99.2371 444.169C99.2564 444.223 99.2663 444.281 99.2662 444.339V445.96H101.427V444.339C101.427 444.277 101.438 444.217 101.457 444.162C101.562 443.313 101.974 442.533 102.615 441.968C103.257 441.403 104.084 441.094 104.938 441.098C106.874 441.098 108.45 442.673 108.45 444.609C108.45 446.545 106.874 448.121 104.938 448.121H103.588V465.947C103.588 466.091 103.531 466.228 103.43 466.329C103.328 466.431 103.191 466.488 103.048 466.488H101.967ZM104.938 445.96C105.683 445.96 106.289 445.354 106.289 444.609C106.289 443.864 105.683 443.258 104.938 443.258C104.615 443.261 104.303 443.379 104.06 443.591C103.816 443.804 103.656 444.097 103.61 444.417L103.588 444.51V445.96H104.938ZM95.7549 443.258C95.0105 443.258 94.4044 443.864 94.4044 444.609C94.4044 445.354 95.0105 445.96 95.7549 445.96H97.1054V444.506L97.0838 444.417C97.0372 444.097 96.8776 443.804 96.6338 443.591C96.3901 443.379 96.0783 443.261 95.7549 443.258Z" fill="white"/>
<path fill-rule="evenodd" clip-rule="evenodd" d="M93.3665 464.286H107.327V469.189H93.3665V464.286ZM96.8565 449.579H99.1833V447.945H96.8565V449.579ZM101.51 447.945V449.579H103.837V447.945H101.51Z" fill="#E2E2E2"/>
</g>
<g clip-path="url(#clip3)">
<path fill-rule="evenodd" clip-rule="evenodd" d="M408.408 316.222L426.854 308.241C427.343 308.029 427.897 308.021 428.392 308.217C428.888 308.413 429.285 308.798 429.497 309.287L443.863 342.49C444.075 342.979 444.084 343.532 443.887 344.028C443.691 344.524 443.306 344.921 442.817 345.133L424.371 353.114C423.882 353.326 423.329 353.334 422.833 353.138C422.337 352.942 421.94 352.557 421.728 352.068L407.362 318.865C407.15 318.376 407.142 317.823 407.338 317.327C407.534 316.831 407.919 316.434 408.408 316.222V316.222Z" fill="#2C3E50"/>
<path fill-rule="evenodd" clip-rule="evenodd" d="M410.164 320.28L428.61 312.299L440.263 339.23L421.817 347.211L410.164 320.28ZM431.678 344.696C432.021 344.548 432.408 344.542 432.755 344.679C433.102 344.817 433.38 345.086 433.528 345.429C433.677 345.771 433.683 346.158 433.545 346.505C433.408 346.852 433.138 347.13 432.796 347.279C432.453 347.427 432.066 347.433 431.719 347.296C431.372 347.158 431.094 346.889 430.946 346.546C430.798 346.204 430.792 345.816 430.929 345.469C431.066 345.123 431.336 344.844 431.678 344.696Z" fill="#35495E"/>
</g>
<g clip-path="url(#clip4)">
<path fill-rule="evenodd" clip-rule="evenodd" d="M8.39062 253.835V233.077C8.39062 232.594 8.58247 232.131 8.92396 231.789C9.26545 231.448 9.7286 231.256 10.2115 231.256H35.7043C36.1873 231.256 36.6504 231.448 36.9919 231.789C37.3334 232.131 37.5252 232.594 37.5252 233.077V253.835H8.39062Z" fill="#2C3E50"/>
<path fill-rule="evenodd" clip-rule="evenodd" d="M9.84735 232.713H36.0685V252.379H9.84735V232.713Z" fill="#35495E"/>
<path fill-rule="evenodd" clip-rule="evenodd" d="M4.74878 253.835H41.167V254.928C41.167 255.732 40.1506 256.02 39.3461 256.02H6.56969C5.76521 256.02 4.74878 255.732 4.74878 254.928V253.835Z" fill="#BDC3C7"/>
<path fill-rule="evenodd" clip-rule="evenodd" d="M26.5816 253.835C26.5396 254.041 26.4279 254.226 26.2653 254.359C26.1027 254.491 25.8992 254.564 25.6893 254.564H20.2266C20.0167 254.564 19.8134 254.491 19.6508 254.358C19.4882 254.226 19.3765 254.041 19.3344 253.835H26.5816Z" fill="#95A5A5"/>
</g>
<g clip-path="url(#clip5)">
<path d="M243.545 135.962H242.196V135.965C242.196 136.094 242.145 136.218 242.054 136.309C241.963 136.4 241.839 136.451 241.71 136.451H226.657C226.529 136.451 226.405 136.4 226.314 136.309C226.223 136.218 226.172 136.094 226.172 135.965V135.962H223.016C222.758 135.962 222.511 136.064 222.329 136.246C222.147 136.428 222.044 136.675 222.044 136.933V159.269C222.044 159.527 222.147 159.774 222.329 159.956C222.511 160.138 222.758 160.24 223.016 160.24H245.352C245.61 160.24 245.857 160.138 246.039 159.956C246.221 159.774 246.323 159.527 246.323 159.269V138.759C246.335 138.738 243.547 135.979 243.545 135.962Z" fill="#23475F"/>
<path d="M241.72 148.831H226.648C226.519 148.831 226.395 148.882 226.304 148.973C226.213 149.064 226.162 149.188 226.162 149.317V160.24H242.206V149.317C242.206 149.048 241.988 148.831 241.72 148.831ZM226.678 146.404H241.69C241.819 146.404 241.942 146.353 242.034 146.262C242.125 146.17 242.176 146.047 242.176 145.918V136.096C242.148 136.198 242.087 136.288 242.003 136.352C241.919 136.416 241.816 136.451 241.71 136.451H226.657C226.435 136.451 226.249 136.3 226.192 136.096V145.918C226.192 145.982 226.205 146.045 226.229 146.104C226.253 146.163 226.289 146.216 226.334 146.261C226.379 146.307 226.433 146.342 226.492 146.367C226.551 146.391 226.614 146.404 226.678 146.404Z" fill="#1C3C50"/>
<path d="M227.386 149.552H240.982C241.111 149.552 241.234 149.603 241.325 149.694C241.416 149.785 241.468 149.909 241.468 150.037V159.027C241.468 159.155 241.416 159.279 241.325 159.37C241.234 159.461 241.111 159.512 240.982 159.512H227.386C227.118 159.512 226.9 159.416 226.9 159.148V150.037C226.9 149.909 226.951 149.785 227.042 149.694C227.133 149.603 227.257 149.552 227.386 149.552Z" fill="#EBF0F1"/>
<path d="M228.114 154.657H240.254V154.9H228.114V154.657ZM228.114 157.085H240.254V157.327H228.114V157.085Z" fill="#BCC4C8"/>
<path d="M223.744 156.356H224.472C224.601 156.356 224.725 156.408 224.816 156.499C224.907 156.59 224.958 156.713 224.958 156.842V157.57C224.958 157.699 224.907 157.822 224.816 157.913C224.725 158.005 224.601 158.056 224.472 158.056H223.744C223.615 158.056 223.492 158.005 223.401 157.913C223.31 157.822 223.258 157.699 223.258 157.57V156.842C223.258 156.713 223.31 156.59 223.401 156.499C223.492 156.408 223.615 156.356 223.744 156.356ZM243.895 156.356H244.624C244.753 156.356 244.876 156.408 244.967 156.499C245.058 156.59 245.109 156.713 245.109 156.842V157.57C245.109 157.699 245.058 157.822 244.967 157.913C244.876 158.005 244.753 158.056 244.624 158.056H243.895C243.767 158.056 243.643 158.005 243.552 157.913C243.461 157.822 243.41 157.699 243.41 157.57V156.842C243.41 156.713 243.461 156.59 243.552 156.499C243.643 156.408 243.767 156.356 243.895 156.356Z" fill="#1C3C50"/>
<path d="M231.028 136.444V145.19C231.028 145.318 231.079 145.442 231.17 145.533C231.261 145.624 231.384 145.675 231.513 145.675H240.982C241.111 145.675 241.234 145.624 241.325 145.533C241.416 145.442 241.467 145.318 241.467 145.19V136.444C241.467 136.446 231.032 136.446 231.028 136.444ZM240.011 143.491C240.011 143.554 239.998 143.618 239.974 143.676C239.949 143.735 239.914 143.789 239.869 143.834C239.823 143.879 239.77 143.915 239.711 143.939C239.652 143.964 239.589 143.976 239.525 143.976H238.068C237.94 143.976 237.816 143.925 237.725 143.834C237.634 143.743 237.583 143.619 237.583 143.491V138.629C237.583 138.5 237.634 138.377 237.725 138.286C237.816 138.195 237.94 138.144 238.068 138.144H239.525C239.654 138.144 239.777 138.195 239.869 138.286C239.96 138.377 240.011 138.5 240.011 138.629V143.491Z" fill="#BCC4C8"/>
<path d="M240.982 149.552H227.386C227.257 149.552 227.133 149.603 227.042 149.694C226.951 149.785 226.9 149.909 226.9 150.037V152.472H241.468V150.037C241.468 149.909 241.416 149.785 241.325 149.694C241.234 149.603 241.111 149.552 240.982 149.552Z" fill="#CD24E8"/>
</g>
<g clip-path="url(#clip6)">
<path d="M428.427 69.1644H398.297C397.592 69.1644 396.915 69.4445 396.417 69.9431C395.918 70.4417 395.638 71.1179 395.638 71.823V104.168C395.638 104.874 395.918 105.55 396.417 106.048C396.915 106.547 397.592 106.827 398.297 106.827H428.427C429.132 106.827 429.808 106.547 430.307 106.048C430.805 105.55 431.085 104.874 431.085 104.168V71.823C431.085 71.1179 430.805 70.4417 430.307 69.9431C429.808 69.4445 429.132 69.1644 428.427 69.1644Z" fill="#35495E"/>
<path opacity="0.2" d="M429.313 69.1644H419.565C418.341 69.1644 417.349 70.1563 417.349 71.3799V100.624C417.349 101.847 418.341 102.839 419.565 102.839H429.313C430.536 102.839 431.528 101.847 431.528 100.624V71.3799C431.528 70.1563 430.536 69.1644 429.313 69.1644Z" fill="black"/>
<path d="M429.313 103.725C429.313 104.078 429.173 104.416 428.924 104.665C428.674 104.915 428.336 105.055 427.984 105.055H398.74C398.387 105.055 398.049 104.915 397.8 104.665C397.551 104.416 397.411 104.078 397.411 103.725V76.6969H429.313V103.725Z" fill="white"/>
<path d="M399.626 74.4815C400.36 74.4815 400.955 73.8864 400.955 73.1523C400.955 72.4181 400.36 71.823 399.626 71.823C398.892 71.823 398.297 72.4181 398.297 73.1523C398.297 73.8864 398.892 74.4815 399.626 74.4815Z" fill="#D15527"/>
<path d="M403.171 74.4815C403.905 74.4815 404.5 73.8864 404.5 73.1523C404.5 72.4181 403.905 71.823 403.171 71.823C402.437 71.823 401.841 72.4181 401.841 73.1523C401.841 73.8864 402.437 74.4815 403.171 74.4815Z" fill="#F19B2D"/>
<path d="M406.715 74.4815C407.45 74.4815 408.045 73.8864 408.045 73.1523C408.045 72.4181 407.45 71.823 406.715 71.823C405.981 71.823 405.386 72.4181 405.386 73.1523C405.386 73.8864 405.981 74.4815 406.715 74.4815Z" fill="#53BB72"/>
<path opacity="0.6" fill-rule="evenodd" clip-rule="evenodd" d="M399.183 78.4692H427.541V103.282H399.183V78.4692Z" fill="url(#paint5_linear)"/>
<path fill-rule="evenodd" clip-rule="evenodd" d="M410.703 78.4692H427.541V103.282H410.703V78.4692Z" fill="url(#paint6_linear)"/>
<path fill-rule="evenodd" clip-rule="evenodd" d="M437.289 62.5181H421.337C420.632 62.5181 419.956 62.7982 419.457 63.2967C418.959 63.7953 418.679 64.4715 418.679 65.1766V98.8518C418.679 99.5567 418.959 100.233 419.458 100.731C419.956 101.229 420.632 101.509 421.337 101.509H437.289C437.994 101.509 438.67 101.229 439.168 100.731C439.667 100.233 439.947 99.5567 439.947 98.8518V65.1766C439.947 64.4715 439.667 63.7953 439.168 63.2967C438.67 62.7982 437.994 62.5181 437.289 62.5181V62.5181ZM438.175 95.3066H420.451V68.7213H438.175V95.3066Z" fill="#35495E"/>
<path fill-rule="evenodd" clip-rule="evenodd" d="M420.451 68.7213H438.175V95.3067H420.451V68.7213Z" fill="white"/>
<path opacity="0.6" fill-rule="evenodd" clip-rule="evenodd" d="M421.78 70.0505H436.845V93.9773H421.78V70.0505Z" fill="url(#paint7_linear)"/>
<path fill-rule="evenodd" clip-rule="evenodd" d="M421.78 82.014H436.845V93.9774H421.78V82.014Z" fill="url(#paint8_linear)"/>
<path fill-rule="evenodd" clip-rule="evenodd" d="M426.433 65.1766H431.75C431.926 65.1766 432.095 65.2467 432.22 65.3713C432.345 65.4959 432.415 65.665 432.415 65.8413C432.415 66.0175 432.345 66.1866 432.22 66.3112C432.095 66.4359 431.926 66.5059 431.75 66.5059H426.433C426.257 66.5059 426.088 66.4359 425.963 66.3112C425.838 66.1866 425.768 66.0175 425.768 65.8413C425.768 65.665 425.838 65.4959 425.963 65.3713C426.088 65.2467 426.257 65.1766 426.433 65.1766ZM429.313 97.0795C429.665 97.0795 430.003 97.2195 430.253 97.4687C430.502 97.7179 430.642 98.0559 430.642 98.4083C430.642 98.7607 430.502 99.0987 430.253 99.3479C430.003 99.5971 429.665 99.7371 429.313 99.7371C429.136 99.7417 428.959 99.7107 428.794 99.646C428.629 99.5813 428.478 99.4841 428.351 99.3603C428.224 99.2364 428.123 99.0884 428.054 98.9249C427.985 98.7614 427.949 98.5858 427.949 98.4083C427.949 98.2309 427.985 98.0552 428.054 97.8917C428.123 97.7282 428.224 97.5802 428.351 97.4563C428.478 97.3325 428.629 97.2353 428.794 97.1706C428.959 97.1059 429.136 97.0749 429.313 97.0795Z" fill="#2C3D4F"/>
</g>
<circle opacity="0.5" cx="377.126" cy="474.348" r="22.1544" fill="url(#paint9_linear)"/>
<circle cx="376.822" cy="474.651" r="14.5673" fill="url(#paint10_linear)"/>
<circle opacity="0.5" cx="104.899" cy="176.629" r="16.3882" fill="url(#paint11_linear)"/>
<circle cx="104.675" cy="176.853" r="10.7758" fill="url(#paint12_linear)"/>
<circle opacity="0.5" cx="296.398" cy="22.7614" r="22.7614" fill="url(#paint13_linear)"/>
<circle cx="296.087" cy="23.0732" r="14.9664" fill="url(#paint14_linear)"/>
<circle opacity="0.5" cx="198.069" cy="365.093" r="10.622" fill="url(#paint15_linear)"/>
<circle cx="197.924" cy="365.239" r="6.98433" fill="url(#paint16_linear)"/>
<circle opacity="0.5" cx="498.823" cy="236.112" r="6.67668" fill="url(#paint17_linear)"/>
<circle cx="498.732" cy="236.203" r="4.39015" fill="url(#paint18_linear)"/>
<defs>
<linearGradient id="paint0_linear" x1="19.3162" y1="504.393" x2="501.251" y2="504.393" gradientUnits="userSpaceOnUse">
<stop stop-color="#0C7DD8"/>
<stop offset="0.245311" stop-color="#4375E8"/>
<stop offset="0.422398" stop-color="#6D6BF1"/>
<stop offset="0.64636" stop-color="#A94EF1"/>
<stop offset="0.823447" stop-color="#CD24E8"/>
<stop offset="1" stop-color="#CD24E8"/>
</linearGradient>
<linearGradient id="paint1_linear" x1="81.2271" y1="442.482" x2="439.34" y2="442.482" gradientUnits="userSpaceOnUse">
<stop stop-color="#0C7DD8"/>
<stop offset="0.245311" stop-color="#4375E8"/>
<stop offset="0.422398" stop-color="#6D6BF1"/>
<stop offset="0.64636" stop-color="#A94EF1"/>
<stop offset="0.823447" stop-color="#CD24E8"/>
<stop offset="1" stop-color="#CD24E8"/>
</linearGradient>
<linearGradient id="paint2_linear" x1="141.924" y1="381.785" x2="379.25" y2="381.785" gradientUnits="userSpaceOnUse">
<stop stop-color="#0C7DD8"/>
<stop offset="0.245311" stop-color="#4375E8"/>
<stop offset="0.422398" stop-color="#6D6BF1"/>
<stop offset="0.64636" stop-color="#A94EF1"/>
<stop offset="0.823447" stop-color="#CD24E8"/>
<stop offset="1" stop-color="#CD24E8"/>
</linearGradient>
<linearGradient id="paint3_linear" x1="132.82" y1="65.5529" x2="163.168" y2="65.5529" gradientUnits="userSpaceOnUse">
<stop stop-color="#4375E8"/>
<stop offset="1" stop-color="#A94EF1"/>
</linearGradient>
<linearGradient id="paint4_linear" x1="73.3364" y1="469.189" x2="127.357" y2="469.189" gradientUnits="userSpaceOnUse">
<stop stop-color="#0C7DD8"/>
<stop offset="0.245311" stop-color="#4375E8"/>
<stop offset="0.422398" stop-color="#6D6BF1"/>
<stop offset="0.64636" stop-color="#A94EF1"/>
<stop offset="0.823447" stop-color="#CD24E8"/>
<stop offset="1" stop-color="#CD24E8"/>
</linearGradient>
<linearGradient id="paint5_linear" x1="399.183" y1="103.282" x2="427.541" y2="103.282" gradientUnits="userSpaceOnUse">
<stop stop-color="#4375E8"/>
<stop offset="1" stop-color="#A94EF1"/>
</linearGradient>
<linearGradient id="paint6_linear" x1="410.703" y1="103.282" x2="427.541" y2="103.282" gradientUnits="userSpaceOnUse">
<stop stop-color="#4375E8"/>
<stop offset="1" stop-color="#A94EF1"/>
</linearGradient>
<linearGradient id="paint7_linear" x1="421.78" y1="93.9773" x2="436.845" y2="93.9773" gradientUnits="userSpaceOnUse">
<stop stop-color="#4375E8"/>
<stop offset="1" stop-color="#A94EF1"/>
</linearGradient>
<linearGradient id="paint8_linear" x1="421.78" y1="93.9774" x2="436.845" y2="93.9774" gradientUnits="userSpaceOnUse">
<stop stop-color="#4375E8"/>
<stop offset="1" stop-color="#A94EF1"/>
</linearGradient>
<linearGradient id="paint9_linear" x1="354.971" y1="496.502" x2="399.28" y2="496.502" gradientUnits="userSpaceOnUse">
<stop stop-color="#4375E8"/>
<stop offset="1" stop-color="#A94EF1"/>
</linearGradient>
<linearGradient id="paint10_linear" x1="362.255" y1="489.219" x2="391.389" y2="489.219" gradientUnits="userSpaceOnUse">
<stop stop-color="#4375E8"/>
<stop offset="1" stop-color="#A94EF1"/>
</linearGradient>
<linearGradient id="paint11_linear" x1="88.5107" y1="193.017" x2="121.287" y2="193.017" gradientUnits="userSpaceOnUse">
<stop stop-color="#4375E8"/>
<stop offset="1" stop-color="#A94EF1"/>
</linearGradient>
<linearGradient id="paint12_linear" x1="93.8987" y1="187.629" x2="115.45" y2="187.629" gradientUnits="userSpaceOnUse">
<stop stop-color="#4375E8"/>
<stop offset="1" stop-color="#A94EF1"/>
</linearGradient>
<linearGradient id="paint13_linear" x1="273.637" y1="45.5228" x2="319.16" y2="45.5228" gradientUnits="userSpaceOnUse">
<stop stop-color="#4375E8"/>
<stop offset="1" stop-color="#A94EF1"/>
</linearGradient>
<linearGradient id="paint14_linear" x1="281.12" y1="38.0396" x2="311.053" y2="38.0396" gradientUnits="userSpaceOnUse">
<stop stop-color="#4375E8"/>
<stop offset="1" stop-color="#A94EF1"/>
</linearGradient>
<linearGradient id="paint15_linear" x1="187.447" y1="375.715" x2="208.691" y2="375.715" gradientUnits="userSpaceOnUse">
<stop stop-color="#4375E8"/>
<stop offset="1" stop-color="#A94EF1"/>
</linearGradient>
<linearGradient id="paint16_linear" x1="190.939" y1="372.223" x2="204.908" y2="372.223" gradientUnits="userSpaceOnUse">
<stop stop-color="#4375E8"/>
<stop offset="1" stop-color="#A94EF1"/>
</linearGradient>
<linearGradient id="paint17_linear" x1="492.146" y1="242.788" x2="505.5" y2="242.788" gradientUnits="userSpaceOnUse">
<stop stop-color="#4375E8"/>
<stop offset="1" stop-color="#A94EF1"/>
</linearGradient>
<linearGradient id="paint18_linear" x1="494.342" y1="240.593" x2="503.122" y2="240.593" gradientUnits="userSpaceOnUse">
<stop stop-color="#4375E8"/>
<stop offset="1" stop-color="#A94EF1"/>
</linearGradient>
<clipPath id="clip0">
<rect width="30.3486" height="30.3486" fill="white" transform="translate(132.82 35.2043)"/>
</clipPath>
<clipPath id="clip1">
<rect width="60.6971" height="60.6971" fill="white" transform="translate(229.935 236.112)"/>
</clipPath>
<clipPath id="clip2">
<rect width="54.0204" height="54.0204" fill="white" transform="translate(73.3364 415.168)"/>
</clipPath>
<clipPath id="clip3">
<rect width="40.197" height="40.197" fill="white" transform="translate(406.564 317.021) rotate(-23.3978)"/>
</clipPath>
<clipPath id="clip4">
<rect width="36.4183" height="36.4183" fill="white" transform="translate(4.74878 231.256)"/>
</clipPath>
<clipPath id="clip5">
<rect width="24.2788" height="24.2788" fill="white" transform="translate(222.044 135.962)"/>
</clipPath>
<clipPath id="clip6">
<rect width="44.3089" height="44.3089" fill="white" transform="translate(395.638 62.5181)"/>
</clipPath>
</defs>
</svg>
